<svg version="1.1" xmlns="http://www.w3.org/2000/svg" width="466.2px" height="500px">
    <path d="M414.3,360.3c-0.1,0-0.3-0.1-0.4-0.1l-82.3-16.5c0.5-8.7-3.6-17.4-11.2-22.5L308,313c27.9-26.8,45.9-68.3,45.9-114.8
		c0-8.9-0.7-17.8-2-26.5h28.4c4.5,0,8.1-3.6,8.1-8.1c0-4.5-3.6-8.1-8.1-8.1h-9.2v-9.2c0-31.8-11.1-62.8-31.3-87.4
		c-3.7-4.5-7.7-8.8-11.9-12.8v-3.5c0-4.5-3.6-8.1-8.1-8.1c-1.6,0-3.1,0.5-4.3,1.3c-14.5-10.8-31-18.7-48.6-23.1
		C265.2,5.4,258.6,0,250.8,0h-34.6c-7.9,0-14.4,5.4-16.2,12.8c-17.6,4.4-34.1,12.3-48.6,23.1c-1.2-0.8-2.7-1.3-4.3-1.3
		c-4.5,0-8.1,3.6-8.1,8.1v3.5c-4.2,4-8.2,8.2-11.9,12.7c-20.2,24.5-31.3,55.6-31.3,87.4v9.2h-9.2c-4.5,0-8.1,3.6-8.1,8.1
		c0,4.5,3.6,8.1,8.1,8.1h28.4c-1.3,8.7-2,17.6-2,26.5c0,46.5,17.9,88,45.9,114.8l-12.3,8.2c-7.7,5.1-11.7,13.8-11.2,22.5l-82.3,16.5
		c-0.1,0-0.3,0.1-0.4,0.1c-30.6,7.6-51.9,35-51.9,66.5v47.8c0,14,11.4,25.4,25.4,25.4h414.7c14,0,25.4-11.4,25.4-25.4v-47.8
		C466.2,395.3,444.9,367.9,414.3,360.3z M311.4,334.7c3.8,2.6,5.2,7.6,3.1,11.7c-17.3,34.5-26.6,53.3-31.5,63.1
		c-13.9-12.2-26.6-19.7-35.2-24l55.9-55.9L311.4,334.7z M257.2,409.9c-7.4,3.1-15.5,4.8-23.7,4.8c-8.2,0-16.2-1.6-23.7-4.8
		c10.9-7.5,19.7-11.5,23.7-13.1C237.5,398.5,246.3,402.4,257.2,409.9z M192.5,335.7c12.8,5.7,26.6,8.8,41,8.8s28.2-3.1,41-8.8
		l-41,41L192.5,335.7z M328,70c17.4,21.5,27,48.6,27,76.3v9.2h-27V70z M267.5,29.7c16.2,4.7,31.3,12.9,44.3,23.8v102h-44.3V29.7z
		 M215.7,16.7c0-0.3,0.2-0.5,0.5-0.5h34.6c0.3,0,0.5,0.2,0.5,0.5v138.8h-35.6V16.7z M155.2,53.5c12.9-10.9,28-19,44.3-23.8v125.8
		h-44.3V53.5z M124.7,155.5H112v-9.2c0-27.8,9.6-54.8,27-76.3v85.5H124.7C124.8,155.5,124.7,155.5,124.7,155.5z M129.3,198.7
		c0-0.2,0-0.4,0-0.6c0-8.9,0.7-17.8,2.2-26.5h204.1c1.4,8.7,2.2,17.5,2.2,26.5c0,0.2,0,0.4,0,0.6c-0.2,0-0.4,0-0.5,0h-26.5v-9.2
		c0-4.5-3.6-8.1-8.1-8.1h-51.8c-4.5,0-8.1,3.6-8.1,8.1v2.3c-2.8-1.1-5.9-1.7-9.2-1.7s-6.3,0.6-9.2,1.7v-2.3c0-4.5-3.6-8.1-8.1-8.1
		h-51.8c-4.5,0-8.1,3.6-8.1,8.1v9.2h-26.5C129.6,198.7,129.5,198.7,129.3,198.7z M130.1,214.9h26.1v0.5c0,4.5,3.6,8.1,8.1,8.1
		c4.5,0,8.1-3.6,8.1-8.1v-17.8h9.7v9.2c0,4.5,3.6,8.1,8.1,8.1c4.5,0,8.1-3.6,8.1-8.1v-9.2h9.7v17.8c0,4.5,3.6,8.1,8.1,8.1
		c4.5,0,8.1-3.6,8.1-8.1c0-5.1,4.1-9.2,9.2-9.2s9.2,4.1,9.2,9.2c0,4.5,3.6,8.1,8.1,8.1c4.5,0,8.1-3.6,8.1-8.1v-17.8h9.7v9.2
		c0,4.5,3.6,8.1,8.1,8.1c4.5,0,8.1-3.6,8.1-8.1v-9.2h9.7v17.8c0,4.5,3.6,8.1,8.1,8.1c4.5,0,8.1-3.6,8.1-8.1v-0.5h26.1
		c-6.6,63.9-50.4,113.4-103.4,113.4S136.7,278.8,130.1,214.9z M155.6,334.7l7.7-5.1l55.9,55.9c-8.7,4.3-21.3,11.8-35.2,24
		c-4.9-9.8-14.3-28.5-31.5-63.1C150.5,342.3,151.8,337.2,155.6,334.7z M69.9,483.8H26.2c-5.1,0-9.2-4.1-9.2-9.2v-47.8
		c0-24,16.2-44.9,39.5-50.8l13.4-2.7V483.8z M104.5,483.8H86.1V370.1l18.4-3.7V483.8z M355,483.8H120.6V363.2l20.2-4l32.5,65.1
		c1.6,3.1,2.9,5.8,7,6.5c0.4,0.1,0.9,0.1,1.3,0.1c2.1,0,4.2-0.8,5.7-2.3c2.8-2.7,5.5-5.3,8.2-7.6c11.5,6.5,24.5,9.9,37.9,9.9
		c13.4,0,26.4-3.4,37.9-9.9c2.7,2.3,5.4,4.9,8.2,7.6c1.5,1.5,3.6,2.3,5.7,2.3c0.4,0,0.9,0,1.3-0.1c4.1-0.7,5.4-3.4,7-6.5l32.5-65.1
		l28.8,5.8V483.8z M389.5,483.8h-18.4V368.2l18.4,3.7V483.8z M450,474.6c0,5.1-4.1,9.2-9.2,9.2h-35.1V375.1l4.8,1
		c23.3,5.9,39.5,26.8,39.5,50.8V474.6z"/>
	<path d="M194.4,282.4c9.6,6.5,23.9,10.3,39.1,10.3s29.5-3.7,39.1-10.3c3.7-2.5,4.7-7.6,2.1-11.3c-2.5-3.7-7.6-4.7-11.3-2.1
		c-6.9,4.7-18.1,7.5-30,7.5c-11.9,0-23.1-2.8-30-7.5c-3.7-2.5-8.7-1.6-11.3,2.1C189.7,274.8,190.7,279.9,194.4,282.4z"/>
</svg>
