<svg version="1.1" xmlns="http://www.w3.org/2000/svg" width="500px" height="500px">
<g>
    <path d="M317.7,325c0-4.6-3.7-8.3-8.3-8.3c-4.6,0-8.3,3.7-8.3,8.3v16.7c0,4.6,3.7,8.3,8.3,8.3c4.6,0,8.3-3.7,8.3-8.3V325z"/>
    <path d="M309.3,416.7c-4.6,0-8.3,3.7-8.3,8.3v33.3c0,4.6,3.7,8.3,8.3,8.3s8.3-3.7,8.3-8.3V425
        C317.7,420.4,313.9,416.7,309.3,416.7z"/>
    <path d="M351,225c0-4.6-3.7-8.3-8.3-8.3s-8.3,3.7-8.3,8.3v16.7c0,4.6,3.7,8.3,8.3,8.3s8.3-3.7,8.3-8.3V225z"/>
    <path d="M317.7,275c0-4.6-3.7-8.3-8.3-8.3c-4.6,0-8.3,3.7-8.3,8.3v16.7c0,4.6,3.7,8.3,8.3,8.3c4.6,0,8.3-3.7,8.3-8.3V275z"/>
    <path d="M317.7,375c0-4.6-3.7-8.3-8.3-8.3c-4.6,0-8.3,3.7-8.3,8.3v16.7c0,4.6,3.7,8.3,8.3,8.3s8.3-3.7,8.3-8.3L317.7,375
        L317.7,375z"/>
    <path d="M351,275c0-4.6-3.7-8.3-8.3-8.3s-8.3,3.7-8.3,8.3v16.7c0,4.6,3.7,8.3,8.3,8.3s8.3-3.7,8.3-8.3V275z"/>
    <path d="M284.3,225c0-4.6-3.7-8.3-8.3-8.3s-8.3,3.7-8.3,8.3v16.7c0,4.6,3.7,8.3,8.3,8.3s8.3-3.7,8.3-8.3V225z"/>
    <path d="M317.7,225c0-4.6-3.7-8.3-8.3-8.3c-4.6,0-8.3,3.7-8.3,8.3v16.7c0,4.6,3.7,8.3,8.3,8.3c4.6,0,8.3-3.7,8.3-8.3V225z"/>
    <path d="M351,141.7V125c0-4.6-3.7-8.3-8.3-8.3s-8.3,3.7-8.3,8.3v16.7c0,4.6,3.7,8.3,8.3,8.3S351,146.3,351,141.7z"/>
    <path d="M284.3,275c0-4.6-3.7-8.3-8.3-8.3s-8.3,3.7-8.3,8.3v16.7c0,4.6,3.7,8.3,8.3,8.3s8.3-3.7,8.3-8.3V275z"/>
    <path d="M384.3,125c0-4.6-3.7-8.3-8.3-8.3s-8.3,3.7-8.3,8.3v16.7c0,4.6,3.7,8.3,8.3,8.3s8.3-3.7,8.3-8.3V125z"/>
    <path d="M276,316.7c-4.6,0-8.3,3.7-8.3,8.3v16.7c0,4.6,3.7,8.3,8.3,8.3s8.3-3.7,8.3-8.3V325C284.3,320.4,280.6,316.7,276,316.7z"
        />
    <path d="M417.7,375c0-4.6-3.7-8.3-8.3-8.3s-8.3,3.7-8.3,8.3v16.7c0,4.6,3.7,8.3,8.3,8.3s8.3-3.7,8.3-8.3L417.7,375L417.7,375z"/>
    <path d="M409.3,416.7c-4.6,0-8.3,3.7-8.3,8.3v33.3c0,4.6,3.7,8.3,8.3,8.3s8.3-3.7,8.3-8.3V425
        C417.7,420.4,413.9,416.7,409.3,416.7z"/>
    <path d="M442.7,316.7c-4.6,0-8.3,3.7-8.3,8.3v16.7c0,4.6,3.7,8.3,8.3,8.3s8.3-3.7,8.3-8.3V325C451,320.4,447.3,316.7,442.7,316.7
        z"/>
    <path d="M309.3,150c4.6,0,8.3-3.7,8.3-8.3v-35.2L401,85.7V225c0,3.5,2.2,6.6,5.4,7.8l61.3,23v85.9c0,4.6,3.7,8.3,8.3,8.3
        s8.3-3.7,8.3-8.3V250c0-3.5-2.2-6.6-5.4-7.8l-61.3-23V58.3c0-4.6-3.7-8.3-8.3-8.3s-8.3,3.7-8.3,8.3v10.2l-93.7,23.4
        c-3.7,0.9-6.3,4.3-6.3,8.1v41.7C301,146.3,304.7,150,309.3,150z"/>
    <path d="M451,275c0-4.6-3.7-8.3-8.3-8.3s-8.3,3.7-8.3,8.3v16.7c0,4.6,3.7,8.3,8.3,8.3s8.3-3.7,8.3-8.3V275z"/>
    <path d="M417.7,275c0-4.6-3.7-8.3-8.3-8.3s-8.3,3.7-8.3,8.3v16.7c0,4.6,3.7,8.3,8.3,8.3s8.3-3.7,8.3-8.3V275z"/>
    <path d="M351,375c0-4.6-3.7-8.3-8.3-8.3s-8.3,3.7-8.3,8.3v16.7c0,4.6,3.7,8.3,8.3,8.3s8.3-3.7,8.3-8.3V375z"/>
    <path d="M417.7,325c0-4.6-3.7-8.3-8.3-8.3s-8.3,3.7-8.3,8.3v16.7c0,4.6,3.7,8.3,8.3,8.3s8.3-3.7,8.3-8.3V325z"/>
    <path d="M342.7,416.7c-4.6,0-8.3,3.7-8.3,8.3v33.3c0,4.6,3.7,8.3,8.3,8.3s8.3-3.7,8.3-8.3V425C351,420.4,347.3,416.7,342.7,416.7
        z"/>
    <path d="M351,325c0-4.6-3.7-8.3-8.3-8.3s-8.3,3.7-8.3,8.3v16.7c0,4.6,3.7,8.3,8.3,8.3s8.3-3.7,8.3-8.3V325z"/>
    <path d="M376,466.7c4.6,0,8.3-3.7,8.3-8.3V191.7c0-3.8-2.6-7.2-6.3-8.1l-133.3-33.3c-2.5-0.6-5.1-0.1-7.2,1.5
        c-2,1.6-3.2,4-3.2,6.6v183.3c0,4.6,3.7,8.3,8.3,8.3c4.6,0,8.3-3.7,8.3-8.3V169l116.7,29.2v260.2
        C367.7,462.9,371.4,466.7,376,466.7z"/>
    <path d="M184.3,175c0-4.6-3.7-8.3-8.3-8.3c-4.6,0-8.3,3.7-8.3,8.3v16.7c0,4.6,3.7,8.3,8.3,8.3c4.6,0,8.3-3.7,8.3-8.3V175z"/>
    <path d="M184.3,125c0-4.6-3.7-8.3-8.3-8.3c-4.6,0-8.3,3.7-8.3,8.3v16.7c0,4.6,3.7,8.3,8.3,8.3c4.6,0,8.3-3.7,8.3-8.3V125z"/>
    <path d="M117.7,375c0-4.6-3.7-8.3-8.3-8.3s-8.3,3.7-8.3,8.3v16.7c0,4.6,3.7,8.3,8.3,8.3s8.3-3.7,8.3-8.3L117.7,375L117.7,375z"/>
    <path d="M42.7,300c4.6,0,8.3-3.7,8.3-8.3V250h83.3v208.3c0,4.6,3.7,8.3,8.3,8.3c4.6,0,8.3-3.7,8.3-8.3V241.7
        c0-4.6-3.7-8.3-8.3-8.3h-100c-4.6,0-8.3,3.7-8.3,8.3v50C34.3,296.3,38.1,300,42.7,300z"/>
    <path d="M134.3,175v16.7c0,4.6,3.7,8.3,8.3,8.3c4.6,0,8.3-3.7,8.3-8.3V175c0-4.6-3.7-8.3-8.3-8.3
        C138.1,166.7,134.3,170.4,134.3,175z"/>
    <path d="M184.3,75c0-4.6-3.7-8.3-8.3-8.3c-4.6,0-8.3,3.7-8.3,8.3v16.7c0,4.6,3.7,8.3,8.3,8.3c4.6,0,8.3-3.7,8.3-8.3V75z"/>
    <path d="M109.3,416.7c-4.6,0-8.3,3.7-8.3,8.3v33.3c0,4.6,3.7,8.3,8.3,8.3s8.3-3.7,8.3-8.3V425
        C117.7,420.4,113.9,416.7,109.3,416.7z"/>
    <path d="M492.7,483.3H476v-51.2c14.3-3.7,25-16.7,25-32.2c0-18.4-15-33.3-33.3-33.3s-33.3,15-33.3,33.3c0,15.5,10.7,28.4,25,32.2
        v51.2H251v-34.2c19-3.9,33.3-20.7,33.3-40.8c0-23-18.7-41.7-41.7-41.7c-23,0-41.7,18.7-41.7,41.7c0,20.1,14.3,37,33.3,40.8v34.2
        H51v-84.2c19-3.9,33.3-20.7,33.3-40.8c0-23-18.7-41.7-41.7-41.7c-23,0-41.7,18.7-41.7,41.7c0,20.1,14.3,37,33.3,40.8v84.2h-25
        c-4.6,0-8.3,3.7-8.3,8.3s3.7,8.3,8.3,8.3h483.3c4.6,0,8.3-3.7,8.3-8.3C501,487.1,497.3,483.3,492.7,483.3z M17.7,358.3
        c0-13.8,11.2-25,25-25s25,11.2,25,25c0,13.8-11.2,25-25,25S17.7,372.1,17.7,358.3z M217.7,408.3c0-13.8,11.2-25,25-25
        s25,11.2,25,25c0,13.8-11.2,25-25,25S217.7,422.1,217.7,408.3z M451,400c0-9.2,7.5-16.7,16.7-16.7s16.7,7.5,16.7,16.7
        c0,9.2-7.5,16.7-16.7,16.7S451,409.2,451,400z"/>
    <path d="M67.7,425v33.3c0,4.6,3.7,8.3,8.3,8.3c4.6,0,8.3-3.7,8.3-8.3V425c0-4.6-3.7-8.3-8.3-8.3C71.4,416.7,67.7,420.4,67.7,425z
        "/>
    <path d="M117.7,275c0-4.6-3.7-8.3-8.3-8.3s-8.3,3.7-8.3,8.3v16.7c0,4.6,3.7,8.3,8.3,8.3s8.3-3.7,8.3-8.3V275z"/>
    <path d="M117.7,325c0-4.6-3.7-8.3-8.3-8.3s-8.3,3.7-8.3,8.3v16.7c0,4.6,3.7,8.3,8.3,8.3s8.3-3.7,8.3-8.3V325z"/>
    <path d="M67.7,275v16.7c0,4.6,3.7,8.3,8.3,8.3c4.6,0,8.3-3.7,8.3-8.3V275c0-4.6-3.7-8.3-8.3-8.3C71.4,266.7,67.7,270.4,67.7,275z
        "/>
    <path d="M184.3,325c0-4.6-3.7-8.3-8.3-8.3c-4.6,0-8.3,3.7-8.3,8.3v16.7c0,4.6,3.7,8.3,8.3,8.3c4.6,0,8.3-3.7,8.3-8.3V325z"/>
    <path d="M217.7,225c0-4.6-3.7-8.3-8.3-8.3s-8.3,3.7-8.3,8.3v16.7c0,4.6,3.7,8.3,8.3,8.3s8.3-3.7,8.3-8.3V225z"/>
    <path d="M217.7,175c0-4.6-3.7-8.3-8.3-8.3s-8.3,3.7-8.3,8.3v16.7c0,4.6,3.7,8.3,8.3,8.3s8.3-3.7,8.3-8.3V175z"/>
    <path d="M217.7,275c0-4.6-3.7-8.3-8.3-8.3s-8.3,3.7-8.3,8.3v16.7c0,4.6,3.7,8.3,8.3,8.3s8.3-3.7,8.3-8.3V275z"/>
    <path d="M209.3,316.7c-4.6,0-8.3,3.7-8.3,8.3v16.7c0,4.6,3.7,8.3,8.3,8.3c4.6,0,8.3-3.7,8.3-8.3V325
        C217.7,320.4,213.9,316.7,209.3,316.7z"/>
    <path d="M217.7,125c0-4.6-3.7-8.3-8.3-8.3s-8.3,3.7-8.3,8.3v16.7c0,4.6,3.7,8.3,8.3,8.3s8.3-3.7,8.3-8.3V125z"/>
    <path d="M184.3,375c0-4.6-3.7-8.3-8.3-8.3c-4.6,0-8.3,3.7-8.3,8.3v16.7c0,4.6,3.7,8.3,8.3,8.3c4.6,0,8.3-3.7,8.3-8.3V375z"/>
    <path d="M109.3,216.7c4.6,0,8.3-3.7,8.3-8.3v-61.5l28.7-14.4c2.8-1.4,4.6-4.3,4.6-7.5V55.2l41.7-20.8l41.7,20.8V125
        c0,4.6,3.7,8.3,8.3,8.3c4.6,0,8.3-3.7,8.3-8.3V50c0-3.2-1.8-6-4.6-7.5L201,19.8V8.3c0-4.6-3.7-8.3-8.3-8.3s-8.3,3.7-8.3,8.3v11.5
        l-45.4,22.7c-2.8,1.4-4.6,4.3-4.6,7.5v69.8l-28.7,14.4c-2.8,1.4-4.6,4.3-4.6,7.5v66.7C101,212.9,104.7,216.7,109.3,216.7z"/>
    <path d="M184.3,275c0-4.6-3.7-8.3-8.3-8.3c-4.6,0-8.3,3.7-8.3,8.3v16.7c0,4.6,3.7,8.3,8.3,8.3c4.6,0,8.3-3.7,8.3-8.3V275z"/>
    <path d="M176,416.7c-4.6,0-8.3,3.7-8.3,8.3v33.3c0,4.6,3.7,8.3,8.3,8.3c4.6,0,8.3-3.7,8.3-8.3V425
        C184.3,420.4,180.6,416.7,176,416.7z"/>
    <path d="M217.7,75c0-4.6-3.7-8.3-8.3-8.3S201,70.4,201,75v16.7c0,4.6,3.7,8.3,8.3,8.3s8.3-3.7,8.3-8.3V75z"/>
    <path d="M184.3,225c0-4.6-3.7-8.3-8.3-8.3c-4.6,0-8.3,3.7-8.3,8.3v16.7c0,4.6,3.7,8.3,8.3,8.3c4.6,0,8.3-3.7,8.3-8.3V225z"/>
</g>
</svg>
