<svg version="1.1" xmlns="http://www.w3.org/2000/svg" width="281.5px" height="400px" viewBox="0 0 281.5 400">
<path d="M279,358.7c3.3-7.9,3.3-16.6,0-24.4l-10.6-25.6c0.2-0.4,0.4-0.9,0.6-1.3c2.8-6.8,2.8-14.3,0-21.2c-3.1-7.4-9-12.9-16.3-15.5
	L223.4,200h20.3c0.9,2.5,3.2,4.3,6,4.3c3.5,0,6.4-2.9,6.4-6.4v-8.5c0-3.5-2.9-6.4-6.4-6.4c-2.8,0-5.1,1.8-6,4.3h-25.6L173.7,79.9
	l1.9-17.6c0.5-5.2-1-10.1-4.4-13.9c-3.4-3.8-8.1-5.8-13.4-5.8h-10.6V6.4c0-3.5-2.9-6.4-6.4-6.4c-3.5,0-6.4,2.9-6.4,6.4v36.2h-10.6
	c-5.2,0-10,2.1-13.4,5.8c-3.4,3.8-5,8.7-4.4,13.9l1.9,17.6L63.3,187.2H37.7c-0.9-2.5-3.2-4.3-6-4.3c-3.5,0-6.4,2.9-6.4,6.4v8.5
	c0,3.5,2.9,6.4,6.4,6.4c2.8,0,5.1-1.8,6-4.3H58l-29.3,70.6c-7.2,2.6-13.2,8.1-16.3,15.5c-3.1,7.5-2.7,15.6,0.6,22.4L2.4,334.2
	c-3.3,7.9-3.3,16.5,0,24.4c2.4,5.9,6.5,10.8,11.6,14.2l-7.6,18.3c-1.3,3.3,0.2,7,3.5,8.3c0.8,0.3,1.6,0.5,2.4,0.5
	c2.5,0,4.9-1.5,5.9-3.9l30.6-73.9c6.5-2.8,11.9-8,14.7-14.9c2.9-6.9,2.7-14.4,0.1-20.9L99.5,200h34.8v10.6c0,3.5,2.9,6.4,6.4,6.4
	c3.5,0,6.4-2.9,6.4-6.4V200H182l10.8,26.1c1,2.5,3.4,3.9,5.9,3.9c0.8,0,1.6-0.2,2.4-0.5c3.3-1.3,4.8-5.1,3.5-8.3l-12.4-30
	c0,0,0,0,0-0.1l-24-58l2.8-26.6L208,196c0,0,0,0.1,0,0.1l30.4,73.4c-1.9,0.4-3.8,0.9-5.6,1.6c-2.2,0.9-4.3,2.1-6.1,3.5l-12.4-29.9
	c-1.3-3.3-5.1-4.8-8.3-3.5c-3.3,1.3-4.8,5.1-3.5,8.3l15.2,36.7c-2.6,6.5-2.8,13.9,0.1,20.9c2.8,6.8,8.2,12.1,14.7,14.9l20.8,50.3
	c0,0,9.8,23.6,9.8,23.6c1,2.5,3.4,3.9,5.9,3.9c0.8,0,1.6-0.2,2.4-0.5c3.3-1.3,4.8-5.1,3.5-8.3l-7.6-18.3
	C272.5,369.4,276.6,364.5,279,358.7z M119.8,56.9c0.9-1,2.3-1.6,3.9-1.6h34c1.6,0,2.9,0.6,3.9,1.6c0.9,1,1.4,2.5,1.2,4l-2,19.2
	c0,0-5,47.5-5,47.5h-30.1l-5-47.4c0,0-2-19.2-2-19.2C118.5,59.4,118.9,58,119.8,56.9z M113.4,133.1l-24,58c0,0,0,0,0,0l-34.6,83.5
	c-1.8-1.4-3.9-2.6-6.1-3.5c-1.8-0.7-3.7-1.3-5.6-1.6l30.4-73.4c0,0,0-0.1,0-0.1l37.1-89.5L113.4,133.1z M14.2,353.8
	c-2-4.7-2-9.9,0-14.7l8.1-19.6c1.6,1.1,3.3,2,5.1,2.8c2.2,0.9,4.5,1.5,6.8,1.8l-15.1,36.6C17,358.8,15.4,356.4,14.2,353.8z
	 M51.8,302.4c-1.7,4.2-5.2,7.2-9.3,8.5c-0.1,0-0.2,0.1-0.4,0.1c-1.3,0.4-2.7,0.6-4.1,0.6c-2,0-3.9-0.4-5.7-1.1
	c-7.6-3.1-11.2-11.9-8.1-19.5c2.3-5.6,7.7-9.2,13.8-9.2c2,0,3.9,0.4,5.7,1.1C51.3,286.1,55,294.8,51.8,302.4z M147.1,187.2v-10.6
	c0-3.5-2.9-6.4-6.4-6.4c-3.5,0-6.4,2.9-6.4,6.4v10.6h-29.6l19.4-46.8h33.1l19.4,46.8H147.1z M237.7,282.9c1.8-0.8,3.7-1.1,5.7-1.1
	c6,0,11.5,3.6,13.8,9.2c1.5,3.7,1.5,7.7,0,11.4c-1.5,3.7-4.4,6.5-8.1,8.1c-1.8,0.8-3.7,1.1-5.7,1.1c-1.4,0-2.8-0.2-4.1-0.6
	c-0.1,0-0.2-0.1-0.4-0.1c-4.1-1.3-7.6-4.4-9.3-8.5C226.5,294.8,230.1,286.1,237.7,282.9z M267.2,353.8c-1.1,2.7-2.8,5-4.9,6.9
	l-15.1-36.6c2.3-0.3,4.6-0.9,6.8-1.8c1.8-0.8,3.5-1.7,5.1-2.8l8.1,19.6C269.2,343.8,269.2,349,267.2,353.8z"/>
</svg>