<svg version="1.1" xmlns="http://www.w3.org/2000/svg" width="629.7px" height="400px" viewBox="0 0 629.7 400">
<path d="M199.8,160.5v79.2c0,0,76.8-0.2,108.1-0.2c-17,51.3-43.2,79.2-108.1,79.2c-65.6,0-116.8-53.1-116.8-118.8
			S134.4,81.2,199.8,81.2c34.7,0,57.1,12.2,77.7,29.2c16.5-16.5,15.1-18.8,57-58.4C299,19.8,251.7,0,200,0C89.6,0,0,89.6,0,200
			s89.6,200,200,200c165.1,0,205.4-143.8,192-239.5C352.9,160.5,199.8,160.5,199.8,160.5z M560.3,164.3V95h-49.4v69.3h-71.2v49.4
			h71.2v71.2h49.4v-71.2h69.3v-49.4H560.3z"/>
</svg>