<svg version="1.1" xmlns="http://www.w3.org/2000/svg" width="400px" height="400px" viewBox="0 0 400 400">
    <path d="M200,0C89.6,0,0,89.6,0,200c0,81.9,49.2,152.2,119.7,183.2c-0.6-14-0.1-30.7,3.5-45.9c3.9-16.2,25.7-109,25.7-109
	s-6.4-12.8-6.4-31.6c0-29.6,17.2-51.8,38.6-51.8c18.2,0,27,13.7,27,30c0,18.3-11.7,45.6-17.7,71c-5,21.2,10.6,38.5,31.6,38.5
	c37.9,0,63.4-48.7,63.4-106.3c0-43.8-29.5-76.6-83.2-76.6c-60.7,0-98.5,45.2-98.5,95.8c0,17.4,5.1,29.7,13.2,39.2
	c3.7,4.3,4.2,6.1,2.9,11.1c-1,3.7-3.2,12.6-4.1,16.1c-1.3,5-5.4,6.9-10,5c-27.9-11.4-40.9-42-40.9-76.4
	c0-56.8,47.9-124.9,142.9-124.9c76.3,0,126.6,55.3,126.6,114.5c0,78.5-43.6,137.1-107.9,137.1c-21.6,0-41.9-11.7-48.9-24.9
	c0,0-11.6,46.1-14.1,55c-4.3,15.4-12.5,30.8-20.1,42.8c18,5.3,37,8.2,56.7,8.2c110.5,0,200-89.5,200-200S310.5,0,200,0z"/>
</svg>