<svg version="1.1" xmlns="http://www.w3.org/2000/svg" width="480px" height="400px" viewBox="0 0 480 400">
    <path d="M480,47.4c-17.6,8-36.6,13.5-56.5,15.9c20.3-12.5,36-32.3,43.3-55.8c-19,11.6-40.1,20-62.6,24.5
			C386.3,12.3,360.7,0,332.3,0c-54.3,0-98.4,45.2-98.4,101c0,7.9,0.8,15.6,2.5,23C154.6,119.8,82,79.6,33.4,18.4
			c-8.5,15-13.3,32.3-13.3,50.8c0,35,17.4,65.9,43.8,84c-16.1-0.5-31.3-5.1-44.6-12.6v1.2c0,48.9,33.9,89.8,79,99
			c-8.3,2.4-17,3.6-25.9,3.6c-6.3,0-12.5-0.6-18.5-1.8c12.5,40.1,48.9,69.3,92,70.1C112.1,339.9,69.6,356,23.5,356
			c-7.9,0-15.8-0.5-23.5-1.4C43.6,383.3,95.4,400,151,400c181.2,0,280.2-153.8,280.2-287.3c0-4.4-0.1-8.8-0.3-13.1
			C450.1,85.4,466.8,67.6,480,47.4"/>
</svg>