<?xml version="1.0" standalone="no"?>
<!DOCTYPE svg PUBLIC "-//W3C//DTD SVG 20010904//EN"
 "http://www.w3.org/TR/2001/REC-SVG-20010904/DTD/svg10.dtd">
<svg version="1.0" xmlns="http://www.w3.org/2000/svg"
 width="880.000000pt" height="880.000000pt" viewBox="0 0 880.000000 880.000000"
 preserveAspectRatio="xMidYMid meet">
<metadata>
Created by potrace 1.11, written by Peter Selinger 2001-2013
</metadata>
<g transform="translate(0.000000,880.000000) scale(0.100000,-0.100000)"
fill="#000000" stroke="none">
<path d="M4393 7975 c-7 -8 -13 -17 -13 -20 0 -3 -5 -11 -10 -18 -9 -10 -37
-55 -129 -209 -22 -37 -125 -206 -261 -428 -62 -102 -139 -226 -169 -277 -31
-50 -92 -151 -136 -223 -44 -72 -84 -139 -90 -148 -5 -9 -48 -79 -95 -155 -47
-75 -90 -145 -95 -155 -67 -114 -99 -168 -104 -172 -3 -3 -17 -25 -30 -50 -14
-25 -27 -47 -30 -50 -3 -3 -12 -16 -20 -30 -8 -14 -57 -95 -109 -180 -173
-282 -265 -435 -289 -475 -13 -22 -46 -75 -73 -118 -28 -43 -50 -81 -50 -83 0
-2 -17 -30 -37 -62 -60 -94 -75 -119 -198 -322 -65 -107 -139 -230 -166 -272
-27 -42 -49 -82 -49 -87 0 -6 -4 -11 -8 -11 -5 0 -17 -18 -27 -40 -10 -22 -22
-40 -27 -40 -4 0 -8 -4 -8 -10 0 -5 -46 -85 -103 -177 -121 -198 -183 -300
-200 -328 -7 -11 -26 -42 -43 -70 -17 -27 -44 -72 -60 -98 -16 -27 -37 -61
-46 -75 -10 -15 -21 -34 -25 -42 -3 -8 -24 -41 -45 -73 -21 -32 -38 -60 -38
-62 0 -6 -167 -277 -178 -290 -5 -6 -11 -15 -13 -21 -4 -9 -170 -284 -201
-332 -10 -15 -22 -36 -28 -47 -5 -11 -28 -49 -50 -84 -22 -34 -40 -67 -40 -72
0 -5 -4 -9 -10 -9 -5 0 -10 -4 -10 -9 0 -5 -38 -72 -85 -148 -47 -76 -89 -145
-94 -153 -5 -8 -39 -63 -75 -122 -36 -59 -66 -112 -66 -118 0 -5 -4 -10 -10
-10 -5 0 -10 -6 -10 -14 0 -8 -3 -16 -8 -18 -4 -2 -36 -50 -70 -108 -118 -196
-221 -365 -229 -375 -4 -6 -15 -23 -23 -38 -8 -15 -49 -82 -90 -149 -41 -68
-80 -132 -87 -143 -7 -11 -16 -29 -22 -40 -5 -12 -16 -27 -25 -34 -9 -7 -16
-17 -16 -21 0 -6 -45 -84 -90 -154 -8 -13 -27 -45 -42 -70 l-27 -46 4396 0
4395 0 -14 23 c-8 12 -61 99 -118 192 -56 94 -110 181 -120 195 -9 14 -21 35
-24 48 -4 12 -12 22 -17 22 -5 0 -9 4 -9 9 0 4 -24 48 -54 97 -30 49 -90 148
-133 219 -42 72 -81 131 -85 133 -4 2 -8 8 -8 14 0 5 -25 50 -55 99 -30 49
-55 93 -55 98 0 5 -4 11 -8 13 -5 1 -23 28 -40 58 -42 70 -51 85 -84 137 -16
23 -28 44 -28 46 0 3 -41 72 -90 153 -50 82 -95 156 -100 164 -5 8 -45 75 -89
148 -45 74 -81 138 -81 143 0 5 -4 9 -8 9 -5 0 -18 19 -31 43 -24 47 -43 79
-51 87 -3 3 -10 14 -17 25 -6 11 -43 73 -82 138 -39 64 -71 121 -71 126 0 5
-3 11 -8 13 -4 2 -45 66 -91 143 -46 77 -96 158 -110 180 -15 22 -32 51 -39
65 -7 14 -26 45 -42 70 -17 25 -36 56 -43 70 -7 14 -25 44 -40 67 -15 24 -27
45 -27 49 0 27 -39 29 -660 29 -349 0 -634 -4 -633 -8 4 -16 77 -132 85 -135
4 -2 8 -8 8 -13 0 -5 39 -73 88 -151 48 -79 92 -150 97 -160 16 -26 169 -277
185 -303 21 -35 185 -301 306 -498 57 -93 104 -171 104 -173 0 -3 5 -10 10
-17 12 -14 150 -237 150 -243 0 -1 14 -23 30 -47 17 -25 30 -50 30 -56 0 -6 3
-11 8 -11 4 0 19 -21 32 -47 14 -27 27 -50 31 -53 17 -16 48 -79 41 -84 -5 -3
-1101 -5 -2436 -5 l-2427 0 7 22 c3 12 12 29 19 37 7 8 45 70 86 138 41 68 84
140 97 160 12 20 31 53 41 73 11 19 27 41 35 48 9 8 16 22 16 32 0 11 3 19 8
19 4 0 15 15 26 33 46 79 56 96 95 157 23 36 44 73 47 83 4 9 10 17 15 17 5 0
9 6 9 13 0 7 7 22 15 32 23 30 85 136 85 146 0 5 5 9 10 9 6 0 10 6 10 13 0 7
9 23 20 35 11 12 20 25 20 29 0 5 15 31 33 58 28 43 149 241 198 323 9 15 49
81 89 147 40 66 103 170 140 230 37 61 110 180 162 265 52 85 101 166 109 180
8 14 16 27 19 30 3 3 13 19 22 35 76 130 164 271 170 273 4 2 8 8 8 14 0 5 13
28 28 51 16 23 32 49 35 57 4 8 54 92 112 185 58 94 118 193 134 220 16 28 34
55 39 60 5 6 11 15 13 21 2 5 45 76 94 158 50 81 97 159 106 174 141 234 255
418 263 424 14 10 24 1 42 -35 29 -62 39 -77 46 -77 5 0 8 -7 8 -15 0 -8 4
-15 8 -15 5 0 14 -16 22 -35 8 -19 17 -35 21 -35 4 0 11 -10 15 -22 4 -13 10
-25 13 -28 13 -9 86 -135 83 -142 -1 -5 2 -8 6 -8 5 0 19 -19 32 -42 13 -24
28 -46 34 -50 6 -4 8 -8 4 -8 -4 0 13 -30 38 -67 24 -38 44 -73 44 -80 0 -6 3
-13 8 -15 6 -3 51 -72 92 -143 9 -16 45 -75 79 -130 34 -55 65 -107 70 -115 5
-8 37 -60 70 -114 34 -54 61 -103 61 -107 0 -5 5 -9 10 -9 6 0 10 -5 10 -11 0
-6 14 -30 30 -54 17 -24 30 -48 30 -54 0 -6 4 -11 9 -11 5 0 11 -6 13 -12 2
-11 74 -132 175 -296 13 -21 38 -63 55 -94 18 -32 36 -58 39 -58 3 0 12 12 20
28 8 15 17 32 22 37 18 23 147 238 147 244 0 5 9 16 20 26 11 10 20 21 20 26
0 4 45 79 100 168 55 89 100 166 100 171 0 6 4 10 9 10 5 0 13 10 17 23 4 12
10 24 13 27 9 6 119 185 139 225 9 17 20 33 26 37 7 5 5 20 -9 45 -11 21 -23
40 -26 43 -7 6 -84 131 -108 175 -9 17 -22 34 -28 38 -7 4 -13 14 -13 21 0 6
-12 28 -26 47 -14 19 -30 43 -35 54 -5 11 -43 73 -84 138 -41 66 -75 123 -75
128 0 5 -4 9 -10 9 -5 0 -10 7 -10 15 0 8 -4 15 -10 15 -5 0 -10 4 -10 9 0 5
-26 50 -57 100 -32 50 -65 104 -73 119 -9 15 -36 58 -60 97 -25 38 -49 77 -55
87 -31 54 -121 195 -131 206 -7 6 -16 22 -20 34 -3 12 -10 26 -15 32 -13 16
-54 79 -62 96 -4 8 -20 35 -37 60 -16 25 -43 70 -61 100 -18 30 -36 57 -41 58
-4 2 -8 10 -8 18 0 8 -4 14 -10 14 -5 0 -10 4 -10 10 0 5 -68 119 -151 252
-84 134 -159 255 -168 270 -9 15 -47 78 -86 139 -38 62 -79 127 -90 145 -11
18 -58 94 -105 169 -47 74 -90 145 -96 156 -18 33 -28 38 -41 24z"/>
</g>
</svg>
